<svg width="56" height="56" viewBox="0 0 56 56" fill="none" xmlns="http://www.w3.org/2000/svg">
<g clip-path="url(#clip0_196_891)">
<path d="M0.679932 41.6321L41.5759 48.4481V10.9601L14.3119 17.7761V34.8161L0.679932 41.6321ZM0.679932 41.6321V14.3681L41.5759 0.736084L55.2079 7.55208V48.4481L41.5759 55.2641" fill="#6E62FF"/>
</g>
<g clip-path="url(#clip1_196_891)">
<path d="M29.3129 21.5662C27.4885 21.5664 25.6807 22.3505 25.8707 23.9173L26.3365 27.323C26.4184 27.9224 26.8232 28.8805 27.4282 28.8805H27.4713L27.9666 34.8259C27.9881 35.0828 28.1744 35.2916 28.4324 35.2916H30.2954C30.5535 35.2916 30.7398 35.0828 30.7612 34.8259L31.2565 28.8805H31.2996C31.9044 28.8805 32.3094 27.9222 32.3914 27.3232L32.8571 23.9171C32.9789 22.3491 31.1375 21.5657 29.3129 21.5662Z" fill="#6E62FF"/>
<path d="M29.3696 27.9277L29.3584 27.9571C29.3622 27.9482 29.3647 27.9391 29.3685 27.9303L29.3696 27.9277ZM25.6393 32.1543C22.3497 32.6191 20.0488 33.7311 20.0488 35.368C20.0488 37.5729 23.8932 39.3603 29.364 39.3603C34.8348 39.3603 38.6792 37.5729 38.6792 35.368C38.6792 33.7311 36.3786 32.6191 33.0892 32.1543L32.6334 32.9302C35.1127 33.2742 36.8162 33.9971 36.8162 34.8359C36.8162 36.0119 33.4797 36.9651 29.364 36.9651C25.2483 36.9651 21.9119 36.0119 21.9119 34.8359C21.9116 33.9998 23.604 33.2777 26.0909 32.9323L25.6393 32.1543Z" fill="#6E62FF"/>
<path d="M29.3639 20.9625C30.7144 20.9625 31.8092 19.8677 31.8092 18.5173C31.8092 17.1668 30.7144 16.072 29.3639 16.072C28.0135 16.072 26.9187 17.1668 26.9187 18.5173C26.9187 19.8677 28.0135 20.9625 29.3639 20.9625Z" fill="#6E62FF"/>
</g>
<defs>
<clipPath id="clip0_196_891">
<rect width="54.528" height="54.528" fill="white" transform="translate(0.679932 0.736084)"/>
</clipPath>
<clipPath id="clip1_196_891">
<rect width="23.288" height="23.288" fill="white" transform="translate(17.72 16.072)"/>
</clipPath>
</defs>
</svg>
